<svg xmlns="http://www.w3.org/2000/svg" viewBox="0 0 71.93 77.98"><defs><style>.cls-1{fill:#47848f;}</style></defs><title>Asset 1</title><g id="Layer_2" data-name="Layer 2"><g id="Layer_1-2" data-name="Layer 1"><path class="cls-1" d="M25.38,16.76c-10.19-1.86-18.25.09-21.46,5.65-2.4,4.15-1.71,9.65,1.66,15.53a1,1,0,1,0,1.81-1c-3-5.3-3.62-10-1.66-13.45C8.4,18.83,15.58,17.1,25,18.82a1,1,0,0,0,.38-2.06ZM10.88,45.09a65.13,65.13,0,0,0,15.58,12.3C41.24,65.93,57,68.21,64.73,62.92a1,1,0,1,0-1.18-1.73c-6.94,4.73-21.88,2.57-36-5.61A63.4,63.4,0,0,1,12.43,43.69,1,1,0,0,0,11,43.62a1,1,0,0,0-.07,1.47Z"/><path class="cls-1" d="M62.26,43.82c6.67-7.88,9-15.81,5.79-21.36-2.35-4.08-7.34-6.24-14-6.33a1.06,1.06,0,0,0-1.06,1,1,1,0,0,0,1,1c6,.08,10.25,1.94,12.18,5.29,2.67,4.61.59,11.68-5.58,19a1,1,0,0,0,1.6,1.35ZM45.11,17.11a65.26,65.26,0,0,0-18.62,7.38C11.23,33.3,1.28,46.29,2.66,55.71a1,1,0,0,0,2.07-.31C3.5,47,12.93,34.73,27.53,26.3a63.19,63.19,0,0,1,18-7.15,1,1,0,1,0-.44-2Z"/><path class="cls-1" d="M20.39,62.24C23.88,72,29.59,78,36,78c4.68,0,9-3.19,12.39-8.81a1,1,0,1,0-1.79-1.08c-3,5-6.76,7.8-10.6,7.8-5.33,0-10.42-5.35-13.64-14.36a1,1,0,0,0-2,.71Zm31.86-1.91A65.47,65.47,0,0,0,55,41C55,23.66,49,8.73,40.34,4.9a1,1,0,0,0-.85,1.91C47.19,10.23,52.94,24.39,52.94,41a63.59,63.59,0,0,1-2.68,18.74,1,1,0,1,0,2,.62Z"/><path class="cls-1" d="M71.93,59.31a5,5,0,1,0-5,5,5,5,0,0,0,5-5Zm-2.09,0a2.91,2.91,0,1,1-2.91-2.91,2.91,2.91,0,0,1,2.91,2.91Z"/><path class="cls-1" d="M5,64.31a5,5,0,1,0-5-5,5,5,0,0,0,5,5Zm0-2.09a2.91,2.91,0,1,1,2.91-2.91A2.91,2.91,0,0,1,5,62.22Z"/><path class="cls-1" d="M36,10a5,5,0,1,0-5-5,5,5,0,0,0,5,5Zm0-2.09A2.91,2.91,0,1,1,38.91,5,2.91,2.91,0,0,1,36,7.91Z"/><path class="cls-1" d="M36.77,44.5a3.62,3.62,0,1,1,2.77-4.3,3.62,3.62,0,0,1-2.77,4.3Z"/></g></g></svg>